<svg xmlns="http://www.w3.org/2000/svg" width="18.002" height="20" viewBox="0 0 18.002 20">
  <g id="Icons_Calendar" data-name="Icons / Calendar" transform="translate(-971.698 -195.4)" style="isolation: isolate">
    <path id="Color" d="M15,20H3a3,3,0,0,1-3-3V5A3,3,0,0,1,3,2H4V1A1,1,0,1,1,6,1V2h6V1a1,1,0,0,1,2,0V2h1a3,3,0,0,1,3,3V17A3,3,0,0,1,15,20ZM2,11v6a1,1,0,0,0,1,1H15a1,1,0,0,0,1-1V11ZM3,4A1,1,0,0,0,2,5V9H16V5a1,1,0,0,0-1-1H14V5a1,1,0,0,1-2,0V4H6V5A1,1,0,1,1,4,5V4ZM13,15H9a1,1,0,0,1,0-2h4a1,1,0,1,1,0,2ZM5,15a1,1,0,1,1,1-1A1,1,0,0,1,5,15Z" transform="translate(971.698 195.4)" fill="#161d6f"/>
  </g>
</svg>
