<svg xmlns="http://www.w3.org/2000/svg" width="20.001" height="19.999" viewBox="0 0 20.001 19.999">
  <g id="Icons_Square" data-name="Icons / Square" transform="translate(-195.418 -196.748)" style="isolation: isolate">
    <path id="Color" d="M16.667,20H3.334A3.337,3.337,0,0,1,0,16.665V3.334A3.337,3.337,0,0,1,3.334,0H16.667A3.337,3.337,0,0,1,20,3.334V16.665A3.337,3.337,0,0,1,16.667,20ZM3.569,2.222A1.349,1.349,0,0,0,2.222,3.569V16.429A1.35,1.35,0,0,0,3.57,17.777H16.43a1.35,1.35,0,0,0,1.348-1.348V3.569A1.349,1.349,0,0,0,16.43,2.222Z" transform="translate(195.418 196.748)" fill="#161d6f"/>
  </g>
</svg>
