<svg xmlns="http://www.w3.org/2000/svg" width="20" height="19.998" viewBox="0 0 20 19.998">
  <g id="Icons_Checkmark_Square_2" data-name="Icons / Checkmark / Square 2" transform="translate(-130.727 -196.749)" style="isolation: isolate">
    <path id="Color" d="M2.89,20A2.894,2.894,0,0,1,0,17.108V2.888A2.893,2.893,0,0,1,2.89,0H13.519a1.111,1.111,0,1,1,0,2.223H2.89a.667.667,0,0,0-.667.665v14.22a.669.669,0,0,0,.667.669H17.111a.669.669,0,0,0,.667-.669V10.924a1.111,1.111,0,0,1,2.222,0v6.184A2.894,2.894,0,0,1,17.111,20Zm7.354-6.666a1.112,1.112,0,0,1-.8-.345L6.975,10.4A1.111,1.111,0,1,1,8.582,8.864l1.672,1.753L16.98,3.671a1.111,1.111,0,1,1,1.6,1.546l-7.53,7.776a1.109,1.109,0,0,1-.8.34Z" transform="translate(130.727 196.749)" fill="#161d6f"/>
  </g>
</svg>
