<svg xmlns="http://www.w3.org/2000/svg" xmlns:xlink="http://www.w3.org/1999/xlink" width="200" height="205" viewBox="0 0 200 205">
  <defs>
    <clipPath id="clip-path">
      <rect id="Rectangle_52" data-name="Rectangle 52" width="200" height="205" rx="30" fill="#ffc14f"/>
    </clipPath>
  </defs>
  <g id="Mask_Group_1" data-name="Mask Group 1" clip-path="url(#clip-path)">
    <g id="Group_55" data-name="Group 55" transform="matrix(-0.259, -0.966, 0.966, -0.259, 70.603, 187.704)" opacity="0.2">
      <g id="Group_47" data-name="Group 47" transform="translate(90.94 153.693)">
        <path id="Path_62" data-name="Path 62" d="M3.25,21.311A4.13,4.13,0,0,1,1.7,21.052,2.452,2.452,0,0,1,.188,19.627,3.73,3.73,0,0,1,.22,17.686,32.261,32.261,0,0,1,5.6,5.433C8.1,1.96,10.456-1.316,15.194.625h0a7.291,7.291,0,0,1,3.074,2.139A5.982,5.982,0,0,1,19.44,6.61a8.966,8.966,0,0,1-1.108,4.09,18.615,18.615,0,0,1-5.854,5.857c-1.437,1.018-2.92,2-4.413,2.922A10.176,10.176,0,0,1,3.25,21.311ZM12.45.149C9.477.2,7.619,2.787,5.677,5.491A32.152,32.152,0,0,0,.31,17.7,3.648,3.648,0,0,0,.276,19.59a2.363,2.363,0,0,0,1.462,1.368c2.043.772,4.323-.355,6.283-1.563,1.49-.92,2.973-1.9,4.408-2.919a18.512,18.512,0,0,0,5.824-5.822C19.973,7.525,19.429,4.4,18.2,2.83A7.193,7.193,0,0,0,15.158.719h0A6.768,6.768,0,0,0,12.45.149Z" transform="translate(0 0)" fill="#fff" stroke="#fff" stroke-width="1"/>
      </g>
      <g id="Group_48" data-name="Group 48" transform="translate(80.243 132.965)">
        <path id="Path_63" data-name="Path 63" d="M10.3,55.516a7.092,7.092,0,0,1-2.118-.256,7.243,7.243,0,0,1-2.712-1.441,5.448,5.448,0,0,1-1.756-2.554,25.157,25.157,0,0,1-.762-4.543l-.032-.291C1.984,37.6,1.172,30.591.369,24.357L.363,24.3c-.285-2.2-.609-4.691.408-7.02a13.352,13.352,0,0,1,.77-1.437c.195-.333.4-.677.575-1.026a12.943,12.943,0,0,0,1.1-5.86,7.57,7.57,0,0,1,.354-2.526A3.281,3.281,0,0,1,5.315,4.521a8.912,8.912,0,0,1,3-.673l.217-.022a81.046,81.046,0,0,0,8.74-1.56A87.623,87.623,0,0,1,27.582.481c.345-.032.689-.068,1.033-.1.8-.083,1.635-.168,2.445-.214a11.978,11.978,0,0,1,3.486.176,5.767,5.767,0,0,1,3.172,1.877,7.038,7.038,0,0,1,1.4,3.887,25.832,25.832,0,0,1,.059,2.6c-.006.5-.012,1.026,0,1.544a22.149,22.149,0,0,0,1.7,8.021c.166.385.345.766.52,1.136a10.37,10.37,0,0,1,1.276,4.147,9.123,9.123,0,0,1-.631,3.394c-2,5.485-5.985,9.639-10.607,14.12-3.214,3.118-6.687,6.223-10.62,9.495a39.144,39.144,0,0,1-4.81,3.6,6.833,6.833,0,0,1-1.958.785A18.2,18.2,0,0,1,10.3,55.516ZM32.067.222c-.323.006-.656.021-1,.041C30.254.31,29.425.4,28.621.476q-.516.054-1.033.1a87.567,87.567,0,0,0-10.3,1.784,80.922,80.922,0,0,1-8.749,1.56l-.217.023a8.82,8.82,0,0,0-2.972.664C3.58,5.451,3.322,7.2,3.307,8.957A13.024,13.024,0,0,1,2.2,14.864h0c-.177.353-.381.7-.577,1.031a13.19,13.19,0,0,0-.763,1.427c-1.006,2.3-.7,4.672-.4,6.964l.008.054c.8,6.236,1.613,13.25,2.555,22.075l.032.293a25.106,25.106,0,0,0,.759,4.523A5.343,5.343,0,0,0,5.535,53.74a7.165,7.165,0,0,0,2.679,1.424c1.662.48,3.524.223,5.811-.312a6.779,6.779,0,0,0,1.93-.775,39.193,39.193,0,0,0,4.8-3.589c3.93-3.271,7.4-6.376,10.615-9.491,4.612-4.47,8.591-8.617,10.58-14.08a9.019,9.019,0,0,0,.625-3.353,10.288,10.288,0,0,0-1.266-4.108c-.175-.371-.355-.753-.521-1.139a22.22,22.22,0,0,1-1.7-8.059c-.013-.518-.006-1.042,0-1.546a25.054,25.054,0,0,0-.06-2.592,6.928,6.928,0,0,0-1.375-3.834A5.672,5.672,0,0,0,34.523.439,9.99,9.99,0,0,0,32.067.222Z" transform="translate(0)" fill="#fff" stroke="#fff" stroke-width="1"/>
      </g>
      <g id="Group_49" data-name="Group 49" transform="translate(66.61 110.65)">
        <path id="Path_64" data-name="Path 64" d="M22.619,92.858A10.954,10.954,0,0,1,16.837,91.5a12.1,12.1,0,0,1-3.228-2.77A10.556,10.556,0,0,1,11.53,84.9c-.616-2.189-1.022-4.442-1.415-6.621L9.9,77.123a355.071,355.071,0,0,0-8.3-35.345C.533,38.115-.686,33.964.857,29.968A18.293,18.293,0,0,1,2.05,27.581c.305-.543.622-1.1.883-1.67,1.464-3.17,1.276-6.729.9-9.792C3.457,13,3.551,9.615,7.094,8.224a12.768,12.768,0,0,1,5.081-.586l.608.012c7.255.122,14.483-1.671,22.12-3.569,3.144-.781,6.394-1.59,9.664-2.259l1.593-.33C47.558,1.2,49,.9,50.415.654a19.679,19.679,0,0,1,6.029-.34A8.823,8.823,0,0,1,62.1,3.275a11.163,11.163,0,0,1,2.217,6.885c.048,1.358-.039,2.726-.123,4.048-.063.993-.128,2.019-.135,3.034a27.181,27.181,0,0,0,3.321,13.2c.391.691.814,1.362,1.238,2.031,1.291,2.041,2.628,4.152,2.922,6.768a14.188,14.188,0,0,1-.8,5.949C67.779,54.324,61.2,61.62,55.273,67.741c-6.363,6.566-13.222,12.6-18.485,17.125a62,62,0,0,1-8.473,6.47,9.919,9.919,0,0,1-3.607,1.345A16.371,16.371,0,0,1,22.619,92.858ZM10.6,8.522a9.2,9.2,0,0,0-3.235.542c-2.957,1.161-3.043,4.008-2.694,6.91.393,3.194.585,6.919-.982,10.308h0c-.278.6-.6,1.178-.918,1.737a17.358,17.358,0,0,0-1.134,2.262c-1.426,3.693-.254,7.683.779,11.2a356.409,356.409,0,0,1,8.319,35.438l.21,1.161c.389,2.158.792,4.389,1.4,6.534a9.664,9.664,0,0,0,1.913,3.509,11.277,11.277,0,0,0,3.012,2.588,11.246,11.246,0,0,0,7.357,1.08,9.093,9.093,0,0,0,3.3-1.235,61.326,61.326,0,0,0,8.349-6.38c5.25-4.512,12.087-10.53,18.425-17.07,5.858-6.046,12.349-13.243,15.237-22.176a13.292,13.292,0,0,0,.765-5.548c-.272-2.408-1.5-4.341-2.791-6.388-.431-.682-.863-1.366-1.261-2.068A28.147,28.147,0,0,1,63.21,17.267c.008-1.04.074-2.08.138-3.086.082-1.3.167-2.643.122-3.956a10.432,10.432,0,0,0-2.016-6.342A8.02,8.02,0,0,0,56.307,1.2a18.92,18.92,0,0,0-5.786.334c-1.4.241-2.836.542-4.225.832L44.7,2.7c-3.254.665-6.5,1.471-9.632,2.25-7.689,1.91-14.956,3.714-22.327,3.594l-.612-.012C11.622,8.523,11.11,8.512,10.6,8.522Z" transform="translate(0 0)" fill="#fff"/>
      </g>
      <g id="Group_50" data-name="Group 50" transform="translate(53.69 88.962)">
        <path id="Path_65" data-name="Path 65" d="M33.371,128.977a12.644,12.644,0,0,1-8.178-2.657,17.07,17.07,0,0,1-3.557-3.937,16.786,16.786,0,0,1-2.254-4.819c-.744-2.722-1.341-5.517-1.918-8.22q-.26-1.221-.525-2.432a374.5,374.5,0,0,0-14.056-48.7c-1.735-4.72-3.9-10.594-1.927-16a23.081,23.081,0,0,1,1.569-3.229c.421-.765.858-1.557,1.218-2.369l.043.019-.043-.019c2.065-4.654,1.55-9.784.773-14.189-.735-4.215-.844-8.756,3.914-10.468a16.512,16.512,0,0,1,6.909-.472c.326.023.651.047.976.068C27.937,12.3,39.3,9.155,51.338,5.82c3.155-.875,6.417-1.779,9.658-2.6l1.758-.448c2.113-.539,4.3-1.1,6.433-1.568a26.76,26.76,0,0,1,8.36-.852,11.285,11.285,0,0,1,7.677,3.795c2.3,2.761,2.824,6.636,2.856,9.4.021,1.828-.137,3.677-.29,5.464-.125,1.477-.256,3-.287,4.518a34.961,34.961,0,0,0,5.049,18.8c.621.993,1.311,1.969,1.977,2.914,1.937,2.743,3.94,5.581,4.453,9.1a18.489,18.489,0,0,1-.945,8.144C94.353,74.563,86.194,84.348,77.924,93.125c-8.371,8.886-17.586,17.126-26.3,24.707A84.693,84.693,0,0,1,39.6,127.094a12.246,12.246,0,0,1-4.984,1.807Q33.991,128.966,33.371,128.977ZM12.113,11.442a11.3,11.3,0,0,0-3.655.6C3.77,13.733,3.881,18.225,4.608,22.4c.78,4.42,1.3,9.57-.779,14.249h0c-.363.817-.8,1.61-1.225,2.378a23.118,23.118,0,0,0-1.56,3.214C-.911,47.611,1.15,53.22,2.97,58.17a374.557,374.557,0,0,1,14.062,48.716q.264,1.212.523,2.433c.577,2.7,1.174,5.495,1.918,8.214a16.669,16.669,0,0,0,2.241,4.791,16.946,16.946,0,0,0,3.538,3.915,12.788,12.788,0,0,0,9.361,2.563,12.124,12.124,0,0,0,4.945-1.795,84.586,84.586,0,0,0,12.011-9.252c8.71-7.579,17.923-15.817,26.29-24.7,8.26-8.767,16.411-18.542,20.089-30.6a18.4,18.4,0,0,0,.941-8.1c-.509-3.494-2.506-6.321-4.436-9.055-.668-.944-1.357-1.923-1.979-2.917a35.074,35.074,0,0,1-5.065-18.854c.031-1.519.161-3.047.288-4.524.152-1.786.309-3.633.29-5.455-.033-2.748-.55-6.6-2.835-9.337A11.2,11.2,0,0,0,77.534.454,26.655,26.655,0,0,0,69.2,1.3c-2.136.471-4.319,1.029-6.431,1.568l-1.758.448c-3.24.818-6.5,1.723-9.656,2.6C39.313,9.252,27.932,12.4,16.307,11.645c-.324-.02-.651-.044-.977-.068C14.267,11.5,13.188,11.422,12.113,11.442Z" transform="translate(0 0)" fill="#fff" stroke="#fff" stroke-width="1"/>
      </g>
      <g id="Group_51" data-name="Group 51" transform="translate(40.368 66.776)">
        <path id="Path_66" data-name="Path 66" d="M43.293,166.108a13.738,13.738,0,0,1-9.521-4.2,22.719,22.719,0,0,1-3.982-5.183,25.136,25.136,0,0,1-2.506-5.954c-.835-3.112-1.573-6.3-2.286-9.375-.318-1.374-.648-2.8-.98-4.188a425.57,425.57,0,0,0-19.81-62.02C1.743,69.167-1.325,61.678,1.12,54.72a28.24,28.24,0,0,1,1.971-4.131c.534-.981,1.086-1.993,1.538-3.035l.043.02-.043-.02C7.247,41.52,6.405,34.89,5.238,29.2a19.633,19.633,0,0,1-.348-7.935,7.283,7.283,0,0,1,5.167-5.544c2.892-.992,5.942-.683,8.891-.389.443.045.885.089,1.326.129A82.624,82.624,0,0,0,44.035,13.81c7.921-1.575,16.021-3.972,23.853-6.29,3.235-.957,6.579-1.947,9.888-2.873l1.668-.468c2.915-.819,5.93-1.667,8.881-2.4A34.292,34.292,0,0,1,99.118.416a14.128,14.128,0,0,1,9.927,4.754c2.972,3.555,3.591,8.571,3.586,12.152,0,2.323-.233,4.669-.454,6.939-.191,1.948-.387,3.963-.442,5.962a42.74,42.74,0,0,0,6.729,24.189c.848,1.287,1.792,2.551,2.706,3.773,2.6,3.485,5.3,7.089,6.039,11.6.489,2.966.139,6.309-1.1,10.521-4.6,15.6-15.151,28.421-24.868,38.9-10.961,11.822-22.873,22.444-34.135,32.312-4.9,4.294-9.97,8.735-15.632,12.094a19.847,19.847,0,0,1-6.49,2.316A9.91,9.91,0,0,1,43.293,166.108ZM14.252,15.147a13.537,13.537,0,0,0-4.17.668c-6.16,2.109-5.859,7.938-4.753,13.36C6.5,34.881,7.343,41.532,4.715,47.593c-.454,1.047-1.008,2.061-1.543,3.043a28.266,28.266,0,0,0-1.964,4.115c-2.433,6.921.628,14.39,3.087,20.392a425.538,425.538,0,0,1,19.813,62.034c.333,1.391.662,2.813.98,4.189.714,3.078,1.451,6.26,2.286,9.371a25.057,25.057,0,0,0,2.5,5.93,22.658,22.658,0,0,0,3.965,5.162c3.417,3.257,7.477,4.716,11.136,4a19.74,19.74,0,0,0,6.458-2.3c5.654-3.354,10.72-7.792,15.619-12.084,11.26-9.865,23.169-20.486,34.127-32.3,9.708-10.471,20.251-23.276,24.845-38.86,1.235-4.194,1.584-7.522,1.1-10.473-.737-4.489-3.423-8.084-6.021-11.559-.914-1.223-1.86-2.488-2.71-3.776a42.85,42.85,0,0,1-6.744-24.25c.055-2,.251-4.019.442-5.969.222-2.267.451-4.612.455-6.928,0-3.565-.611-8.555-3.565-12.089A14.039,14.039,0,0,0,99.107.515,34.237,34.237,0,0,0,88.342,1.878c-2.951.73-5.965,1.577-8.878,2.4l-1.67.469c-3.306.925-6.651,1.915-9.886,2.872-7.834,2.319-15.934,4.716-23.861,6.293A82.752,82.752,0,0,1,20.263,15.56q-.662-.06-1.328-.129A39.874,39.874,0,0,0,14.252,15.147Z" fill="#fff" stroke="#fff" stroke-width="1"/>
      </g>
      <g id="Group_52" data-name="Group 52" transform="translate(27.04 44.659)">
        <path id="Path_67" data-name="Path 67" d="M53.86,203.095c-3.958.072-8.075-1.912-11.5-5.6a28.512,28.512,0,0,1-4.408-6.43,35.472,35.472,0,0,1-2.757-7.089c-.886-3.343-1.714-6.752-2.513-10.049-.512-2.11-1.042-4.292-1.579-6.426A485.233,485.233,0,0,0,5.542,92.169c-3.2-7.315-7.174-16.419-4.249-24.928A33.756,33.756,0,0,1,3.674,62.19c.643-1.188,1.307-2.417,1.85-3.682,3.184-7.485,1.909-15.968.442-22.521-.634-2.854-1.274-6.542-.581-9.738A8.7,8.7,0,0,1,11.69,19.5c3.539-1.173,7.272-.73,10.881-.305.547.065,1.114.131,1.669.19,9.022.976,18.855.339,30.058-1.949C64.3,15.39,74.5,12.239,84.361,9.191c3.341-1.033,6.795-2.1,10.2-3.111l1.48-.442c3.75-1.116,7.628-2.27,11.426-3.275C111.671,1.252,116.15.2,120.7.484A17,17,0,0,1,132.876,6.2c3.642,4.352,4.357,10.508,4.317,14.907-.028,2.819-.328,5.665-.618,8.418-.255,2.418-.519,4.919-.6,7.4A50.7,50.7,0,0,0,144.383,66.5c1.077,1.579,2.275,3.128,3.435,4.626,3.274,4.229,6.659,8.6,7.627,14.113.636,3.608.236,7.7-1.258,12.893a91.1,91.1,0,0,1-12.1,25.344A178.7,178.7,0,0,1,124.566,145.3c-13.146,14.323-27.355,27.055-41.975,39.916-6.031,5.306-12.268,10.795-19.239,14.926a22.234,22.234,0,0,1-8,2.827A11.183,11.183,0,0,1,53.86,203.095ZM16.455,18.848a15.881,15.881,0,0,0-4.739.744,8.6,8.6,0,0,0-6.24,6.678c-.689,3.175-.052,6.847.582,9.691A56.308,56.308,0,0,1,7.6,47.25a27.064,27.064,0,0,1-1.989,11.3h0c-.545,1.269-1.211,2.5-1.856,3.69a33.864,33.864,0,0,0-2.374,5.036c-2.91,8.47,1.058,17.554,4.246,24.851a485.1,485.1,0,0,1,25.567,75.353c.537,2.133,1.067,4.315,1.579,6.426.8,3.3,1.626,6.706,2.513,10.047a35.355,35.355,0,0,0,2.75,7.069,28.43,28.43,0,0,0,4.393,6.408c3.838,4.126,8.542,6.108,12.915,5.443a22.114,22.114,0,0,0,7.967-2.816c6.963-4.128,13.2-9.611,19.224-14.916,14.617-12.859,28.826-25.588,41.966-39.909a178.32,178.32,0,0,0,17.509-21.8A90.982,90.982,0,0,0,154.1,98.111c1.489-5.173,1.888-9.255,1.256-12.847-.964-5.485-4.342-9.849-7.609-14.069-1.16-1.5-2.36-3.05-3.438-4.63a50.793,50.793,0,0,1-8.424-29.642c.079-2.485.344-4.988.6-7.409.29-2.751.589-5.594.617-8.409.041-4.38-.671-10.512-4.293-14.842A16.91,16.91,0,0,0,120.69.584c-4.535-.29-9.008.767-13.2,1.875-3.8,1-7.675,2.158-11.423,3.274l-1.481.44c-3.406,1.013-6.86,2.08-10.2,3.113-9.863,3.047-20.063,6.2-30.072,8.245C43.1,19.821,33.256,20.46,24.227,19.482c-.554-.06-1.121-.126-1.67-.191A45.176,45.176,0,0,0,16.455,18.848Z" fill="#fff" stroke="#fff" stroke-width="1"/>
      </g>
      <g id="Group_53" data-name="Group 53" transform="translate(13.71 22.531)">
        <path id="Path_68" data-name="Path 68" d="M64.4,240.1a14.437,14.437,0,0,1-6.853-1.681,21.916,21.916,0,0,1-6.593-5.325,34.367,34.367,0,0,1-4.834-7.675,47.61,47.61,0,0,1-3.01-8.224c-.881-3.354-1.734-6.77-2.557-10.074-.763-3.059-1.551-6.222-2.358-9.312A548.466,548.466,0,0,0,6.877,109.157c-3.924-8.614-8.81-19.333-5.41-29.39a39.248,39.248,0,0,1,2.782-5.948c.755-1.4,1.537-2.856,2.172-4.35h0c3.739-8.878,2.113-18.927.278-26.689-.8-3.381-1.608-7.747-.816-11.54.834-4,3.27-6.606,7.444-7.958s8.6-.78,12.865-.225c.662.085,1.347.174,2.018.255,10.917,1.3,22.8.57,36.338-2.249,12.08-2.517,24.365-6.43,36.244-10.216,3.459-1.1,7.036-2.242,10.559-3.331l1.1-.342c4.647-1.438,9.452-2.924,14.161-4.223C131.591,1.577,136.9.263,142.283.557c5.978.333,11.1,2.7,14.426,6.672,4.313,5.148,5.125,12.445,5.046,17.66-.05,3.315-.421,6.661-.779,9.9-.32,2.889-.651,5.876-.754,8.839A58.722,58.722,0,0,0,170.307,78.6c1.3,1.87,2.756,3.7,4.163,5.477,3.942,4.974,8.019,10.117,9.215,16.624,1.028,5.584-.316,11.388-1.416,15.268a107.427,107.427,0,0,1-14,29.768,205.076,205.076,0,0,1-20.372,25.655c-15.312,16.809-32.3,32.07-49.811,47.52-7.164,6.321-14.571,12.856-22.846,17.758a24.462,24.462,0,0,1-9.514,3.338A12.829,12.829,0,0,1,64.4,240.1ZM18.686,22.549a18.226,18.226,0,0,0-5.335.827c-4.137,1.34-6.55,3.919-7.377,7.882-.787,3.773.022,8.125.815,11.494A65.93,65.93,0,0,1,8.764,56.13,31.552,31.552,0,0,1,6.506,69.506h0c-.636,1.5-1.419,2.954-2.176,4.36A39.127,39.127,0,0,0,1.555,79.8c-3.387,10.017,1.489,20.716,5.408,29.312a548.484,548.484,0,0,1,31.32,88.671c.806,3.09,1.6,6.254,2.36,9.313.823,3.3,1.676,6.719,2.556,10.072a47.654,47.654,0,0,0,3,8.207,34.367,34.367,0,0,0,4.821,7.655,21.877,21.877,0,0,0,6.564,5.3,13.97,13.97,0,0,0,8.13,1.58,24.362,24.362,0,0,0,9.477-3.325c8.267-4.9,15.671-11.43,22.831-17.746,17.51-15.449,34.495-30.708,49.8-47.515a204.957,204.957,0,0,0,20.362-25.64,107.327,107.327,0,0,0,13.991-29.739c2.291-8.08,1.9-12.556,1.413-15.22-1.19-6.483-5.26-11.616-9.2-16.581-1.407-1.774-2.862-3.608-4.165-5.481a58.833,58.833,0,0,1-10.1-35.035c.1-2.967.435-5.957.754-8.847.359-3.234.73-6.579.78-9.889.078-5.2-.73-12.469-5.024-17.595-3.26-3.893-8.5-6.315-14.363-6.64Q141.227.6,140.184.62a55.14,55.14,0,0,0-13.547,2.427c-4.707,1.3-9.513,2.784-14.159,4.221l-1.1.342c-3.524,1.09-7.1,2.23-10.56,3.332-11.882,3.786-24.169,7.7-36.253,10.217C51.019,23.98,39.124,24.715,28.2,23.409c-.67-.08-1.355-.168-2.018-.256A51.345,51.345,0,0,0,18.686,22.549Z" fill="#fff" stroke="#fff" stroke-width="1"/>
      </g>
      <g id="Group_54" data-name="Group 54" transform="translate(0)">
        <path id="Path_69" data-name="Path 69" d="M75.388,277.913c-5.528.1-11.342-3.034-15.753-8.553a40.745,40.745,0,0,1-5.311-9.006,62.14,62.14,0,0,1-3.284-9.423c-.81-3.1-1.6-6.215-2.388-9.322-1.082-4.263-2.2-8.67-3.352-12.972A613.459,613.459,0,0,0,8.259,126.732c-4.688-9.975-10.521-22.391-6.588-34.161a44.825,44.825,0,0,1,3.211-6.912c.864-1.611,1.757-3.277,2.475-4.984,4.245-10.152,2.279-21.681.091-30.593-2.168-8.861-3.241-19.484,7.8-23,4.9-1.563,10.038-.848,15.007-.159.788.11,1.576.219,2.36.318,28.484,3.644,57.14-5.7,84.859-14.729,3.65-1.19,7.3-2.379,10.953-3.541l.408-.13c5.65-1.8,11.493-3.657,17.224-5.287C151.836,1.908,158,.337,164.277.632c6.909.338,13.079,3.166,16.928,7.759,5.061,6.035,5.984,14.576,5.867,20.678-.074,3.834-.516,7.691-.944,11.421-.383,3.351-.781,6.815-.908,10.243a66.384,66.384,0,0,0,11.692,40.118c1.524,2.152,3.228,4.265,4.876,6.309,4.642,5.756,9.443,11.707,10.883,19.309,1.235,6.514-.311,13.3-1.58,17.837-7.382,26.371-24.839,47.975-39.223,63.851-17.522,19.337-36.489,36.421-57.682,55.159-8.3,7.342-16.888,14.933-26.512,20.633a27.282,27.282,0,0,1-11.175,3.9Q75.944,277.9,75.388,277.913ZM21.3,27.047a20.351,20.351,0,0,0-5.838.89c-10.264,3.272-9.4,12.9-7.2,21.891,2.223,9.051,4.215,20.775-.14,31.187h0c-.736,1.749-1.64,3.435-2.514,5.065a44.109,44.109,0,0,0-3.148,6.762c-3.811,11.409,1.935,23.638,6.553,33.465a614.4,614.4,0,0,1,37.1,102.055c1.153,4.308,2.271,8.719,3.354,12.984q1.181,4.657,2.387,9.316a61.284,61.284,0,0,0,3.235,9.284,39.912,39.912,0,0,0,5.2,8.817c4.538,5.677,10.577,8.748,16.164,8.191a26.46,26.46,0,0,0,10.834-3.785c9.552-5.657,18.107-13.219,26.378-20.533,21.172-18.72,40.121-35.787,57.611-55.088,14.314-15.8,31.685-37.292,39.013-63.47,1.244-4.445,2.76-11.084,1.562-17.4-1.4-7.383-6.129-13.248-10.7-18.92-1.656-2.054-3.37-4.178-4.909-6.351A67.317,67.317,0,0,1,184.378,50.73c.13-3.464.528-6.948.915-10.315.424-3.709.864-7.544.937-11.332.113-5.945-.776-14.256-5.662-20.084-3.706-4.421-9.668-7.144-16.359-7.471-6.161-.295-12.246,1.265-17.958,2.89S134.7,7.9,129.051,9.7l-.408.129c-3.652,1.163-7.3,2.352-10.947,3.541-27.8,9.058-56.552,18.425-85.21,14.763-.786-.1-1.577-.21-2.368-.32A57.132,57.132,0,0,0,21.3,27.047Z" fill="#fff"/>
      </g>
    </g>
  </g>
</svg>
