<svg xmlns="http://www.w3.org/2000/svg" width="92.533" height="110" viewBox="0 0 92.533 110">
  <g id="meal" transform="translate(-40.651)">
    <path id="Path_165" data-name="Path 165" d="M129.057,110H44.778a4.127,4.127,0,0,1-4.127-4.127V4.127A4.127,4.127,0,0,1,44.778,0h84.279a4.127,4.127,0,0,1,4.127,4.127V105.873A4.127,4.127,0,0,1,129.057,110Z" transform="translate(0)" fill="#161d6f"/>
    <path id="Path_166" data-name="Path 166" d="M114.728,99.545H76.594a3.283,3.283,0,0,1-3.283-3.283V35.337a3.283,3.283,0,0,1,3.283-3.283h38.134a3.283,3.283,0,0,1,3.283,3.283V96.262A3.283,3.283,0,0,1,114.728,99.545Z" transform="translate(-25.643 -25.167)" fill="#fff"/>
    <path id="Path_167" data-name="Path 167" d="M73,36.01A40.509,40.509,0,0,1,113.391,76.4V99.174h.947a3.36,3.36,0,0,0,3.35-3.35V34.893a3.18,3.18,0,0,0-3.18-3.18H76.2a3.2,3.2,0,0,0-3.2,3.2V36.01Z" transform="translate(-25.399 -24.9)" fill="#fff0e3"/>
    <path id="Path_168" data-name="Path 168" d="M110.644,401.336H71.815a4.148,4.148,0,0,1-4.148-4.148v-14.26a4.148,4.148,0,0,1,4.148-4.148h38.829a4.148,4.148,0,0,1,4.148,4.148v14.26A4.148,4.148,0,0,1,110.644,401.336Z" transform="translate(-21.212 -297.401)" fill="#ff715a"/>
    <path id="Path_169" data-name="Path 169" d="M92.492,383.01a18.262,18.262,0,0,1,18.262,18.262h.22a4.077,4.077,0,0,0,4.077-4.077V382.849a4.136,4.136,0,0,0-4.136-4.136H72.145A4.145,4.145,0,0,0,68,382.858v.151Z" transform="translate(-21.473 -297.349)" fill="#cc6969"/>
    <path id="Path_170" data-name="Path 170" d="M341.981,404.2H323.526a3.51,3.51,0,0,1-3.51-3.51V387.317a3.51,3.51,0,0,1,3.51-3.51h18.455a3.51,3.51,0,0,1,3.51,3.51v13.377A3.51,3.51,0,0,1,341.981,404.2Z" transform="translate(-219.345 -301.348)" fill="#fff0e3"/>
    <path id="Path_171" data-name="Path 171" d="M325.156,388.011a16.113,16.113,0,0,1,16.113,16.113h.784a3.513,3.513,0,0,0,3.513-3.513V387.218a3.5,3.5,0,0,0-3.5-3.5H323.6a3.609,3.609,0,0,0-3.6,3.6v.7h5.156Z" transform="translate(-219.333 -301.275)" fill="#ffd8c7"/>
    <path id="Path_172" data-name="Path 172" d="M337.777,231.288H317.871a4.133,4.133,0,0,1-4.133-4.133V202.42a4.133,4.133,0,0,1,4.133-4.133h19.906a4.133,4.133,0,0,1,4.133,4.133v24.735A4.133,4.133,0,0,1,337.777,231.288Z" transform="translate(-214.416 -155.686)" fill="#cc9e5a"/>
    <path id="Path_173" data-name="Path 173" d="M314,203.01a23.848,23.848,0,0,1,23.848,23.848v4.727h.22a4.077,4.077,0,0,0,4.077-4.077v-24.7a4.1,4.1,0,0,0-4.095-4.095H318.161A4.174,4.174,0,0,0,314,202.875v.135Z" transform="translate(-214.621 -156.021)" fill="#c19152"/>
    <path id="Path_174" data-name="Path 174" d="M341.686,60.883H322.452a3.307,3.307,0,0,1-3.307-3.307V35.637a3.307,3.307,0,0,1,3.307-3.307h19.234a3.307,3.307,0,0,1,3.307,3.307V57.576A3.307,3.307,0,0,1,341.686,60.883Z" transform="translate(-218.661 -25.384)" fill="#fff0e3"/>
    <path id="Path_175" data-name="Path 175" d="M319,37.011A21.548,21.548,0,0,1,340.484,58.5v2.793h.958a3.348,3.348,0,0,0,3.339-3.339V36.125a3.421,3.421,0,0,0-3.411-3.411H322.209A3.209,3.209,0,0,0,319,35.922v1.088Z" transform="translate(-218.548 -25.686)" fill="#ffd8c7"/>
    <g id="Group_71" data-name="Group 71" transform="translate(55.288 18.64)">
      <circle id="Ellipse_6" data-name="Ellipse 6" cx="1.867" cy="1.867" r="1.867" fill="#cc9e5a"/>
      <circle id="Ellipse_7" data-name="Ellipse 7" cx="1.867" cy="1.867" r="1.867" transform="translate(0 20.008)" fill="#cc9e5a"/>
    </g>
    <circle id="Ellipse_8" data-name="Ellipse 8" cx="1.867" cy="1.867" r="1.867" transform="translate(55.288 60.947)"/>
    <circle id="Ellipse_9" data-name="Ellipse 9" cx="1.867" cy="1.867" r="1.867" transform="translate(68.151 18.64)" fill="#cc9e5a"/>
    <circle id="Ellipse_10" data-name="Ellipse 10" cx="1.867" cy="1.867" r="1.867" transform="translate(68.151 38.648)"/>
    <circle id="Ellipse_11" data-name="Ellipse 11" cx="1.867" cy="1.867" r="1.867" transform="translate(68.151 60.947)"/>
    <g id="Group_72" data-name="Group 72" transform="translate(63.906 85.51)">
      <circle id="Ellipse_12" data-name="Ellipse 12" cx="1.867" cy="1.867" r="1.867" transform="translate(0 10.931)" fill="#e5281a"/>
      <circle id="Ellipse_13" data-name="Ellipse 13" cx="1.867" cy="1.867" r="1.867" transform="translate(21.639)" fill="#e5281a"/>
    </g>
    <circle id="Ellipse_14" data-name="Ellipse 14" cx="1.867" cy="1.867" r="1.867" transform="translate(80.878 18.64)" fill="#cc9e5a"/>
    <circle id="Ellipse_15" data-name="Ellipse 15" cx="1.867" cy="1.867" r="1.867" transform="translate(80.878 38.648)"/>
    <circle id="Ellipse_16" data-name="Ellipse 16" cx="1.867" cy="1.867" r="1.867" transform="translate(80.878 60.947)" fill="#cc9e5a"/>
    <g id="Group_73" data-name="Group 73" transform="translate(50.776 27.112)">
      <path id="Path_176" data-name="Path 176" d="M104.094,130.33l3.053-1.435a28.381,28.381,0,0,1,37.759,13.611l.511,1.088a3.451,3.451,0,0,1-1.655,4.591L95.585,170.832a3.451,3.451,0,0,1-4.591-1.655l-.511-1.088A28.381,28.381,0,0,1,104.094,130.33Z" transform="translate(-87.779 -126.192)" fill="#ffc14f"/>
      <path id="Path_177" data-name="Path 177" d="M99.1,399.374l-2.922-4.591a1.939,1.939,0,0,1,.595-2.677l4.591-2.922a1.939,1.939,0,0,1,2.677.595l2.922,4.591a1.939,1.939,0,0,1-.595,2.677l-4.591,2.922A1.939,1.939,0,0,1,99.1,399.374Z" transform="translate(-94.135 -332.444)" fill="#fede7a"/>
    </g>
    <path id="Path_178" data-name="Path 178" d="M186.079,422.2l1.225-5.3a1.939,1.939,0,0,1,2.326-1.453l5.3,1.225a1.939,1.939,0,0,1,1.453,2.326l-1.225,5.3a1.939,1.939,0,0,1-2.326,1.453l-5.3-1.225A1.939,1.939,0,0,1,186.079,422.2Z" transform="translate(-114.144 -326.146)" fill="#fffde9"/>
    <path id="Path_179" data-name="Path 179" d="M340.333,231.356l.446-1.931a2.387,2.387,0,0,1,2.863-1.789l1.931.446a2.387,2.387,0,0,1,1.789,2.863l-.446,1.931a2.387,2.387,0,0,1-2.863,1.789l-1.931-.446A2.387,2.387,0,0,1,340.333,231.356Z" transform="translate(-235.249 -178.682)" fill="#e5281a"/>
    <path id="Path_180" data-name="Path 180" d="M411.639,283.012l.446-1.931a2.387,2.387,0,0,1,2.863-1.789l1.931.446a2.387,2.387,0,0,1,1.789,2.863l-.446,1.931a2.387,2.387,0,0,1-2.863,1.789l-1.931-.446A2.387,2.387,0,0,1,411.639,283.012Z" transform="translate(-291.235 -219.24)" fill="#fffde9"/>
    <circle id="Ellipse_17" data-name="Ellipse 17" cx="6.4" cy="6.4" r="6.4" transform="translate(106.974 19.272)" fill="#cc6969"/>
    <circle id="Ellipse_18" data-name="Ellipse 18" cx="6.4" cy="6.4" r="6.4" transform="translate(107.045 10.373)" fill="#cc4646"/>
    <path id="Path_181" data-name="Path 181" d="M345.135,308.42l-8.107.447a.884.884,0,0,0-.692,1.366l4.441,6.8a.884.884,0,0,0,1.529-.084l3.666-7.245A.884.884,0,0,0,345.135,308.42Z" transform="translate(-232.045 -242.157)" fill="#fede7a"/>
    <path id="Path_182" data-name="Path 182" d="M384.675,229.771A1.684,1.684,0,0,1,383,228.264a8.834,8.834,0,0,1,.926-5.251,8.58,8.58,0,0,1,2.743-2.92c.8-.591,1.163-.876,1.328-1.454a2.563,2.563,0,0,0-.651-2.52,2.688,2.688,0,0,0-2.106-.42,1.684,1.684,0,1,1-.68-3.3,5.98,5.98,0,0,1,4.969,1.153,5.88,5.88,0,0,1,1.707,6.015,5.951,5.951,0,0,1-2.568,3.239,5.439,5.439,0,0,0-1.783,1.82,5.544,5.544,0,0,0-.534,3.284,1.684,1.684,0,0,1-1.5,1.853C384.794,229.767,384.734,229.771,384.675,229.771Z" transform="translate(-268.75 -166.668)" fill="#a57341"/>
    <path id="Path_183" data-name="Path 183" d="M333.792,410.506a7.783,7.783,0,1,1,1.363-.12h0A7.815,7.815,0,0,1,333.792,410.506Zm1.069-1.779h0ZM333.8,398.32a4.408,4.408,0,1,0,.761,8.748,4.408,4.408,0,0,0-.761-8.748Z" transform="translate(-224.058 -310.098)" fill="#f5ccdc"/>
    <path id="Path_184" data-name="Path 184" d="M342.1,416.542a5.509,5.509,0,1,1,.964-.085h0A5.5,5.5,0,0,1,342.1,416.542Zm1.067.495h0Zm-1.056-10.407a4.408,4.408,0,1,0,.761,8.748,4.408,4.408,0,0,0-.761-8.748Z" transform="translate(-232.369 -318.408)" fill="#fff"/>
    <path id="Path_185" data-name="Path 185" d="M333.792,410.506a7.783,7.783,0,1,1,1.363-.12h0A7.815,7.815,0,0,1,333.792,410.506Zm1.069-1.779h0Zm-1.05-12.842a6.923,6.923,0,0,0-1.21.107,6.81,6.81,0,1,0,1.21-.107Z" transform="translate(-224.058 -310.098)" fill="#e0a9d5"/>
    <path id="Path_186" data-name="Path 186" d="M366.6,410.506a7.783,7.783,0,1,1,1.363-.12h0A7.816,7.816,0,0,1,366.6,410.506Zm1.069-1.779h0ZM366.61,398.32a4.408,4.408,0,1,0,.761,8.748,4.408,4.408,0,0,0-.761-8.748Z" transform="translate(-249.815 -310.098)" fill="#f5ccdc"/>
    <path id="Path_187" data-name="Path 187" d="M374.909,416.542a5.509,5.509,0,1,1,.964-.085h0A5.5,5.5,0,0,1,374.909,416.542Zm1.067.495h0Zm-1.055-10.407a4.408,4.408,0,1,0,.761,8.748,4.408,4.408,0,0,0-.761-8.748Z" transform="translate(-258.126 -318.408)" fill="#fff"/>
    <path id="Path_188" data-name="Path 188" d="M366.6,410.506a7.783,7.783,0,1,1,1.363-.12h0A7.816,7.816,0,0,1,366.6,410.506Zm1.069-1.779h0Zm-1.05-12.842a6.923,6.923,0,0,0-1.21.107,6.81,6.81,0,1,0,1.21-.107Z" transform="translate(-249.815 -310.098)" fill="#e0a9d5"/>
    <path id="Path_189" data-name="Path 189" d="M112.072,181.144c-1.328-2.855-1.992-4.282-1.9-5.3.227-2.394,2.265-2.416,2.947-5.182s-1.123-3.757-.2-5.624c1.045-2.112,3.584-1.311,5.654-4.064,1.052-1.4.581-1.854,1.748-3.241,1.1-1.3,1.953-1.427,4.478-2.872,3.929-2.249,3.785-3.057,5.4-3.248,2.439-.288,2.748,1.547,5.643,1.845,4.015.413,5.729-2.881,8.378-1.815,1.762.709,1.217,2.253,3.521,3.839,2.4,1.65,3.754.511,6.2,2.05,1.989,1.252,3.926,3.792,3.457,5.9-.426,1.912-2.7,2.846-4.759,3.71-4.716,1.979-9.337,4.177-14.034,6.2a149.145,149.145,0,0,0-15.564,8.191c-3.447,2.088-6.934,4.4-8.98,3.107C113.551,184.309,113.051,183.249,112.072,181.144Z" transform="translate(-54.581 -118.895)" fill="#f9e79b"/>
    <g id="Group_74" data-name="Group 74" transform="translate(61.858 36.092)">
      <circle id="Ellipse_19" data-name="Ellipse 19" cx="1.134" cy="1.134" r="1.134" transform="translate(0 19.83)" fill="#fede7a"/>
      <circle id="Ellipse_20" data-name="Ellipse 20" cx="1.134" cy="1.134" r="1.134" transform="translate(1.066 10.832)" fill="#fede7a"/>
      <circle id="Ellipse_21" data-name="Ellipse 21" cx="1.134" cy="1.134" r="1.134" transform="translate(10.555 5.079)" fill="#fede7a"/>
      <circle id="Ellipse_22" data-name="Ellipse 22" cx="1.134" cy="1.134" r="1.134" transform="translate(7.752 12.998)" fill="#fede7a"/>
      <circle id="Ellipse_23" data-name="Ellipse 23" cx="1.134" cy="1.134" r="1.134" transform="translate(14.401 15.537)" fill="#fede7a"/>
      <circle id="Ellipse_24" data-name="Ellipse 24" cx="1.134" cy="1.134" r="1.134" transform="translate(16.335 6.394)" fill="#fede7a"/>
      <circle id="Ellipse_25" data-name="Ellipse 25" cx="1.134" cy="1.134" r="1.134" transform="translate(31.728 6.394)" fill="#fede7a"/>
      <circle id="Ellipse_26" data-name="Ellipse 26" cx="1.134" cy="1.134" r="1.134" transform="translate(20.681 10.605)" fill="#fede7a"/>
      <circle id="Ellipse_27" data-name="Ellipse 27" cx="1.134" cy="1.134" r="1.134" transform="translate(24.277)" fill="#fede7a"/>
      <circle id="Ellipse_28" data-name="Ellipse 28" cx="1.134" cy="1.134" r="1.134" transform="translate(26.327 5.251)" fill="#fede7a"/>
    </g>
  </g>
</svg>
