<svg xmlns="http://www.w3.org/2000/svg" width="21.837" height="24.253" viewBox="0 0 21.837 24.253">
  <g id="Group_79" data-name="Group 79" transform="translate(-335.417 -30)">
    <g id="Solid_Status_Notification" data-name="Solid / Status /Notification" transform="translate(335.417 32.23)">
      <g id="Notification" transform="translate(0 0)">
        <path id="Shape" d="M8.456,22.022a3.07,3.07,0,0,1-3.067-3.066v-1.2l-3.8-.456a1.8,1.8,0,0,1-1.266-2.82A8.227,8.227,0,0,0,1.783,10.3l.246-3.94a4.708,4.708,0,0,1,4.69-4.406h.622V1.115a1.115,1.115,0,1,1,2.23,0v.836h.621a4.707,4.707,0,0,1,4.69,4.406l.247,3.94a8.217,8.217,0,0,0,1.458,4.186,1.8,1.8,0,0,1-1.266,2.82l-3.8.456v1.2A3.069,3.069,0,0,1,8.456,22.022Zm-1.394-3.9v.836a1.394,1.394,0,0,0,2.788,0v-.836Z" fill="#161d6f"/>
      </g>
    </g>
    <g id="Ellipse_13" data-name="Ellipse 13" transform="translate(343.873 30)" fill="#ff6868" stroke="#ffc14f" stroke-width="2">
      <circle cx="6.69" cy="6.69" r="6.69" stroke="none"/>
      <circle cx="6.69" cy="6.69" r="5.69" fill="none"/>
    </g>
  </g>
</svg>
